STARTFONT 2.1
FONT -AmsteinGraphics-DMCP-Normal-R-Normal--9-90-173-173-P-340--
SIZE 9 173 173
FONTBOUNDINGBOX 15 31 0 -6
STARTPROPERTIES 39
FAMILY_NAME "DMCP"
DEFAULT_CHAR -1
FOUNDRY "AmsteinGraphics"
COPYRIGHT "Copyright (c) 2022 SwissMicros"
CODEPAGE "MS Windows 1252 Western (ANSI)"
ENC_MODE 2
ENC_ID 1
CREATION_YEAR 2022
WEIGHT_NAME "Normal"
SLANT "R"
SETWIDTH_NAME "Normal"
SPACING "P"
WEIGHT 400
HI_VERSION 1
CP_RANGE_1 65535
CP_RANGE_2 65535
FONTNAME_REGISTRY "-"
BREAK_CHAR 32
PIXEL_SIZE 21
POINT_SIZE 90
FONT_ASCENT 21
FONT_DESCENT 6
RESOLUTION_X 173
RESOLUTION_Y 173
AVERAGE_WIDTH 340
MIN_SPACE 17
NORM_SPACE 17
MAX_SPACE 17
END_SPACE 17
SUPERSCRIPT_X 8
SUPERSCRIPT_Y 8
SUBSCRIPT_X 8
SUBSCRIPT_Y 8
X_HEIGHT 15
AVG_CAPITAL_WIDTH 17
AVG_LOWERCASE_WIDTH 17
CAP_HEIGHT 20
FIGURE_WIDTH 17
SUBSCRIPT_SIZE 13
ENDPROPERTIES
CHARS 289
STARTCHAR space.uni0020
ENCODING 32
SWIDTH 466 0
DWIDTH 16 0
BBX 0 0 -1 0
BITMAP
ENDCHAR
STARTCHAR exclam.uni0021
ENCODING 33
SWIDTH 740 0
DWIDTH 16 0
BBX 3 20 6 0
BITMAP
E000
E000
E000
E000
E000
E000
E000
E000
E000
E000
E000
E000
E000
E000
0000
0000
0000
E000
E000
E000
ENDCHAR
STARTCHAR quotedbl.uni0022
ENCODING 34
SWIDTH 740 0
DWIDTH 16 0
BBX 7 7 4 13
BITMAP
C600
C600
C600
C600
C600
C600
C600
ENDCHAR
STARTCHAR numbersign.uni0023
ENCODING 35
SWIDTH 740 0
DWIDTH 16 0
BBX 14 18 0 0
BITMAP
0318
0318
0630
0630
0630
FFFC
FFFC
0C60
0C60
18C0
18C0
FFFC
FFFC
3180
3180
3180
6300
6300
ENDCHAR
STARTCHAR dollar.uni0024
ENCODING 36
SWIDTH 740 0
DWIDTH 16 0
BBX 11 24 2 -4
BITMAP
0400
0400
0400
1F80
7FC0
7440
E400
E400
E400
F400
7C00
3F80
07C0
05E0
04E0
04E0
84E0
C5C0
FFC0
3F00
0400
0400
0400
0400
ENDCHAR
STARTCHAR percent.uni0025
ENCODING 37
SWIDTH 740 0
DWIDTH 16 0
BBX 15 20 0 0
BITMAP
3C00
7E00
E700
C300
C300
E700
7E06
3C1C
0070
01C0
0700
1C00
7078
C0FC
01CE
0186
0186
01CE
00FC
0078
ENDCHAR
STARTCHAR ampersand.uni0026
ENCODING 38
SWIDTH 740 0
DWIDTH 16 0
BBX 15 20 0 0
BITMAP
0F80
1FC0
3C40
3800
3800
3800
1C00
1C00
1E00
3F00
7706
E786
E3C6
E1C6
E1EC
E0FC
7078
787C
3FDC
0F9E
ENDCHAR
STARTCHAR quotesingle.uni0027
ENCODING 39
SWIDTH 740 0
DWIDTH 16 0
BBX 2 7 6 13
BITMAP
C000
C000
C000
C000
C000
C000
C000
ENDCHAR
STARTCHAR parenleft.uni0028
ENCODING 40
SWIDTH 740 0
DWIDTH 16 0
BBX 6 24 4 -3
BITMAP
0C00
1800
1800
3000
3000
7000
7000
6000
E000
E000
E000
E000
E000
E000
E000
E000
6000
7000
7000
3000
3000
1800
1800
0C00
ENDCHAR
STARTCHAR parenright.uni0029
ENCODING 41
SWIDTH 740 0
DWIDTH 16 0
BBX 6 24 4 -3
BITMAP
C000
6000
6000
7000
3000
3800
3800
1800
1C00
1C00
1C00
1C00
1C00
1C00
1C00
1C00
1800
3800
3800
3000
7000
6000
6000
C000
ENDCHAR
STARTCHAR asterisk.uni002A
ENCODING 42
SWIDTH 740 0
DWIDTH 16 0
BBX 11 12 2 8
BITMAP
0400
0400
8420
E4E0
3F80
0E00
0E00
3F80
E4E0
8420
0400
0400
ENDCHAR
STARTCHAR plus.uni002B
ENCODING 43
SWIDTH 740 0
DWIDTH 16 0
BBX 14 14 0 1
BITMAP
0300
0300
0300
0300
0300
0300
FFFC
FFFC
0300
0300
0300
0300
0300
0300
ENDCHAR
STARTCHAR comma.uni002C
ENCODING 44
SWIDTH 740 0
DWIDTH 16 0
BBX 4 8 5 -4
BITMAP
7000
7000
7000
7000
6000
E000
E000
C000
ENDCHAR
STARTCHAR hyphen.uni002D
ENCODING 45
SWIDTH 740 0
DWIDTH 16 0
BBX 7 2 4 6
BITMAP
FE00
FE00
ENDCHAR
STARTCHAR period.uni002E
ENCODING 46
SWIDTH 740 0
DWIDTH 16 0
BBX 3 4 6 0
BITMAP
E000
E000
E000
E000
ENDCHAR
STARTCHAR slash.uni002F
ENCODING 47
SWIDTH 740 0
DWIDTH 16 0
BBX 13 22 1 -2
BITMAP
0038
0038
0070
0070
00E0
00E0
01C0
01C0
0380
0380
0700
0700
0E00
0E00
1C00
1C00
3800
3800
7000
7000
E000
E000
ENDCHAR
STARTCHAR zero.uni0030
ENCODING 48
SWIDTH 740 0
DWIDTH 16 0
BBX 12 20 1 0
BITMAP
0F00
3FC0
39C0
70E0
70E0
E070
E0F0
E1F0
E3F0
E770
EE70
FC70
F870
F070
E070
70E0
70E0
39C0
3FC0
0F00
ENDCHAR
STARTCHAR one.uni0031
ENCODING 49
SWIDTH 740 0
DWIDTH 16 0
BBX 11 20 2 0
BITMAP
0200
0E00
3E00
FE00
CE00
0E00
0E00
0E00
0E00
0E00
0E00
0E00
0E00
0E00
0E00
0E00
0E00
0E00
FFE0
FFE0
ENDCHAR
STARTCHAR two.uni0032
ENCODING 50
SWIDTH 740 0
DWIDTH 16 0
BBX 12 20 1 0
BITMAP
3F00
FFC0
E1E0
80F0
0070
0070
0070
0070
00F0
01E0
01E0
03C0
0780
0F00
1E00
3C00
7800
F000
FFF0
FFF0
ENDCHAR
STARTCHAR three.uni0033
ENCODING 51
SWIDTH 740 0
DWIDTH 16 0
BBX 12 20 1 0
BITMAP
1F80
7FC0
40E0
0070
0070
0070
0070
01E0
1FC0
1F80
01E0
00E0
0070
0070
0070
0070
00F0
81E0
FFC0
3F00
ENDCHAR
STARTCHAR four.uni0034
ENCODING 52
SWIDTH 740 0
DWIDTH 16 0
BBX 13 20 1 0
BITMAP
01C0
03C0
03C0
07C0
07C0
0DC0
0DC0
19C0
19C0
31C0
31C0
61C0
61C0
FFF8
FFF8
01C0
01C0
01C0
01C0
01C0
ENDCHAR
STARTCHAR five.uni0035
ENCODING 53
SWIDTH 740 0
DWIDTH 16 0
BBX 12 20 1 0
BITMAP
7FE0
7FE0
7000
7000
7000
7000
7000
7F80
7FC0
41E0
00E0
0070
0070
0070
0070
0070
00E0
81E0
FFC0
7F00
ENDCHAR
STARTCHAR six.uni0036
ENCODING 54
SWIDTH 740 0
DWIDTH 16 0
BBX 12 20 1 0
BITMAP
07C0
1FE0
3C20
7000
7000
6000
E000
E780
EFC0
F8E0
F0F0
E070
E070
E070
E070
6070
70F0
70E0
3FC0
0F80
ENDCHAR
STARTCHAR seven.uni0037
ENCODING 55
SWIDTH 740 0
DWIDTH 16 0
BBX 12 20 1 0
BITMAP
FFF0
FFF0
00F0
00E0
00E0
01C0
01C0
01C0
0380
0380
0780
0700
0700
0F00
0E00
0E00
1C00
1C00
3C00
3800
ENDCHAR
STARTCHAR eight.uni0038
ENCODING 56
SWIDTH 740 0
DWIDTH 16 0
BBX 12 20 1 0
BITMAP
1F80
7FE0
70E0
E070
E070
E070
E070
70E0
3FC0
1F80
7FE0
70E0
E070
E070
E070
E070
E070
70E0
7FE0
1F80
ENDCHAR
STARTCHAR nine.uni0039
ENCODING 57
SWIDTH 740 0
DWIDTH 16 0
BBX 12 20 1 0
BITMAP
1F00
3FC0
71E0
F0E0
E060
E070
E070
E070
E070
F0F0
71F0
3F70
1E70
0070
00E0
00E0
00E0
43C0
7F80
3E00
ENDCHAR
STARTCHAR colon.uni003A
ENCODING 58
SWIDTH 740 0
DWIDTH 16 0
BBX 3 14 6 0
BITMAP
E000
E000
E000
E000
0000
0000
0000
0000
0000
0000
E000
E000
E000
E000
ENDCHAR
STARTCHAR semicolon.uni003B
ENCODING 59
SWIDTH 740 0
DWIDTH 16 0
BBX 4 18 5 -4
BITMAP
7000
7000
7000
7000
0000
0000
0000
0000
0000
0000
7000
7000
7000
7000
6000
E000
E000
C000
ENDCHAR
STARTCHAR less.uni003C
ENCODING 60
SWIDTH 740 0
DWIDTH 16 0
BBX 13 11 1 3
BITMAP
0018
00F8
03E0
1F00
7C00
E000
7C00
1F00
03E0
00F8
0018
ENDCHAR
STARTCHAR equal.uni003D
ENCODING 61
SWIDTH 740 0
DWIDTH 16 0
BBX 13 7 1 5
BITMAP
FFF8
FFF8
0000
0000
0000
FFF8
FFF8
ENDCHAR
STARTCHAR greater.uni003E
ENCODING 62
SWIDTH 740 0
DWIDTH 16 0
BBX 13 11 1 3
BITMAP
C000
F800
3E00
07C0
01F0
0038
01F0
07C0
3E00
F800
C000
ENDCHAR
STARTCHAR question.uni003F
ENCODING 63
SWIDTH 466 0
DWIDTH 16 0
BBX 10 20 2 0
BITMAP
3E00
7F80
C3C0
81C0
01C0
01C0
03C0
0780
0F00
0E00
1C00
1C00
1C00
1C00
1C00
0000
0000
1C00
1C00
1C00
ENDCHAR
STARTCHAR at.uni0040
ENCODING 64
SWIDTH 466 0
DWIDTH 16 0
BBX 15 22 0 -4
BITMAP
03E0
0FF8
1C1C
380C
7006
6006
60F6
C3FE
C30E
C606
C606
C606
C606
C30E
C3FE
60F6
6000
3000
3800
1E08
0FF8
01F8
ENDCHAR
STARTCHAR A.uni0041
ENCODING 65
SWIDTH 466 0
DWIDTH 16 0
BBX 15 20 0 0
BITMAP
0380
0380
07C0
07C0
07C0
0EE0
0EE0
0EE0
1C70
1C70
1C70
3838
3838
3FF8
7FFC
701C
701C
F01E
E00E
E00E
ENDCHAR
STARTCHAR B.uni0042
ENCODING 66
SWIDTH 466 0
DWIDTH 16 0
BBX 12 20 1 0
BITMAP
FF00
FFC0
E1C0
E0E0
E0E0
E0E0
E0E0
E1C0
FF80
FF80
E1E0
E0E0
E070
E070
E070
E070
E070
E0E0
FFE0
FF80
ENDCHAR
STARTCHAR C.uni0043
ENCODING 67
SWIDTH 466 0
DWIDTH 16 0
BBX 12 20 1 0
BITMAP
07E0
1FF0
3C30
7810
7000
7000
E000
E000
E000
E000
E000
E000
E000
E000
7000
7000
7810
3C30
1FF0
07E0
ENDCHAR
STARTCHAR D.uni0044
ENCODING 68
SWIDTH 466 0
DWIDTH 16 0
BBX 12 20 1 0
BITMAP
FE00
FF80
E1C0
E0E0
E0E0
E060
E070
E070
E070
E070
E070
E070
E070
E070
E070
E0E0
E0E0
E1C0
FF80
FE00
ENDCHAR
STARTCHAR E.uni0045
ENCODING 69
SWIDTH 466 0
DWIDTH 16 0
BBX 12 20 1 0
BITMAP
FFF0
FFF0
E000
E000
E000
E000
E000
E000
FFE0
FFE0
E000
E000
E000
E000
E000
E000
E000
E000
FFF0
FFF0
ENDCHAR
STARTCHAR F.uni0046
ENCODING 70
SWIDTH 466 0
DWIDTH 16 0
BBX 12 20 1 0
BITMAP
FFF0
FFF0
E000
E000
E000
E000
E000
E000
FFE0
FFE0
E000
E000
E000
E000
E000
E000
E000
E000
E000
E000
ENDCHAR
STARTCHAR G.uni0047
ENCODING 71
SWIDTH 466 0
DWIDTH 16 0
BBX 13 20 1 0
BITMAP
07E0
1FF0
3C30
7810
7000
7000
E000
E000
E000
E000
E1F8
E1F8
E038
E038
6038
7038
7038
3C38
1FF8
07E0
ENDCHAR
STARTCHAR H.uni0048
ENCODING 72
SWIDTH 466 0
DWIDTH 16 0
BBX 12 20 1 0
BITMAP
E070
E070
E070
E070
E070
E070
E070
E070
FFF0
FFF0
E070
E070
E070
E070
E070
E070
E070
E070
E070
E070
ENDCHAR
STARTCHAR I.uni0049
ENCODING 73
SWIDTH 466 0
DWIDTH 16 0
BBX 11 20 2 0
BITMAP
FFE0
FFE0
0E00
0E00
0E00
0E00
0E00
0E00
0E00
0E00
0E00
0E00
0E00
0E00
0E00
0E00
0E00
0E00
FFE0
FFE0
ENDCHAR
STARTCHAR J.uni004A
ENCODING 74
SWIDTH 466 0
DWIDTH 16 0
BBX 11 20 2 0
BITMAP
1FE0
1FE0
00E0
00E0
00E0
00E0
00E0
00E0
00E0
00E0
00E0
00E0
00E0
00E0
00E0
00E0
80E0
C1C0
FFC0
3F00
ENDCHAR
STARTCHAR K.uni004B
ENCODING 75
SWIDTH 466 0
DWIDTH 16 0
BBX 14 20 0 0
BITMAP
E01C
E038
E070
E0E0
E1C0
E380
E700
EE00
FE00
FE00
FF00
F780
E380
E3C0
E1E0
E0E0
E0F0
E078
E038
E03C
ENDCHAR
STARTCHAR L.uni004C
ENCODING 76
SWIDTH 466 0
DWIDTH 16 0
BBX 12 20 1 0
BITMAP
E000
E000
E000
E000
E000
E000
E000
E000
E000
E000
E000
E000
E000
E000
E000
E000
E000
E000
FFF0
FFF0
ENDCHAR
STARTCHAR M.uni004D
ENCODING 77
SWIDTH 466 0
DWIDTH 16 0
BBX 13 20 1 0
BITMAP
E038
E038
F078
F078
F078
F8F8
F8F8
EDB8
EDB8
EDB8
EFB8
E738
E738
E038
E038
E038
E038
E038
E038
E038
ENDCHAR
STARTCHAR N.uni004E
ENCODING 78
SWIDTH 466 0
DWIDTH 16 0
BBX 12 20 1 0
BITMAP
F070
F070
F070
F870
F870
E870
EC70
EC70
E470
E670
E670
E270
E370
E370
E170
E1F0
E1F0
E0F0
E0F0
E0F0
ENDCHAR
STARTCHAR O.uni004F
ENCODING 79
SWIDTH 466 0
DWIDTH 16 0
BBX 13 20 1 0
BITMAP
0F80
3FE0
38E0
7070
7070
E038
E038
E038
E038
E038
E038
E038
E038
E038
E038
7070
7070
38E0
3FE0
0F80
ENDCHAR
STARTCHAR P.uni0050
ENCODING 80
SWIDTH 466 0
DWIDTH 16 0
BBX 12 20 1 0
BITMAP
FF80
FFE0
E1E0
E0F0
E070
E070
E070
E070
E0F0
E1E0
FFE0
FF80
E000
E000
E000
E000
E000
E000
E000
E000
ENDCHAR
STARTCHAR Q.uni0051
ENCODING 81
SWIDTH 466 0
DWIDTH 16 0
BBX 13 24 1 -4
BITMAP
0F80
3FE0
38E0
7070
7070
E038
E038
E038
E038
E038
E038
E038
E038
E038
E038
7070
7070
38E0
3FC0
0F80
01C0
00E0
0070
0020
ENDCHAR
STARTCHAR R.uni0052
ENCODING 82
SWIDTH 466 0
DWIDTH 16 0
BBX 14 20 0 0
BITMAP
FF80
FFC0
E0E0
E070
E070
E070
E070
E070
E0E0
FFC0
FF80
E3C0
E1E0
E0E0
E0F0
E070
E070
E038
E038
E01C
ENDCHAR
STARTCHAR S.uni0053
ENCODING 83
SWIDTH 466 0
DWIDTH 16 0
BBX 12 20 1 0
BITMAP
1F80
3FE0
78E0
E020
E000
E000
E000
F000
7F00
3FC0
0FE0
01E0
00F0
0070
0070
0070
80F0
E1E0
FFC0
3F80
ENDCHAR
STARTCHAR T.uni0054
ENCODING 84
SWIDTH 466 0
DWIDTH 16 0
BBX 13 20 1 0
BITMAP
FFF8
FFF8
0700
0700
0700
0700
0700
0700
0700
0700
0700
0700
0700
0700
0700
0700
0700
0700
0700
0700
ENDCHAR
STARTCHAR U.uni0055
ENCODING 85
SWIDTH 466 0
DWIDTH 16 0
BBX 12 20 1 0
BITMAP
E070
E070
E070
E070
E070
E070
E070
E070
E070
E070
E070
E070
E070
E070
E070
E070
E070
70E0
7FE0
1F80
ENDCHAR
STARTCHAR V.uni0056
ENCODING 86
SWIDTH 466 0
DWIDTH 16 0
BBX 14 20 0 0
BITMAP
E01C
E01C
7038
7038
7038
7038
3870
3870
3870
1860
1CE0
1CE0
1CE0
0CC0
0FC0
0FC0
0780
0780
0780
0780
ENDCHAR
STARTCHAR W.uni0057
ENCODING 87
SWIDTH 466 0
DWIDTH 16 0
BBX 15 20 0 0
BITMAP
E00E
E00E
E00E
E00E
701C
739C
739C
739C
739C
739C
3298
3298
3EF8
3EF8
3EF8
3C78
3C78
1C70
1C70
1830
ENDCHAR
STARTCHAR X.uni0058
ENCODING 88
SWIDTH 466 0
DWIDTH 16 0
BBX 15 20 0 0
BITMAP
F01E
701C
3838
3C78
1C70
0EE0
0EE0
07C0
0380
0380
07C0
07C0
0EE0
0EE0
1C70
3C70
3838
783C
701C
F01E
ENDCHAR
STARTCHAR Y.uni0059
ENCODING 89
SWIDTH 466 0
DWIDTH 16 0
BBX 15 20 0 0
BITMAP
F01E
701C
783C
3838
3C78
1C70
0EE0
0EE0
07C0
07C0
0380
0380
0380
0380
0380
0380
0380
0380
0380
0380
ENDCHAR
STARTCHAR Z.uni005A
ENCODING 90
SWIDTH 466 0
DWIDTH 16 0
BBX 13 20 1 0
BITMAP
FFF8
FFF8
0078
0070
00F0
01E0
01C0
03C0
0380
0780
0F00
0E00
1E00
1C00
3C00
7800
7000
F000
FFF8
FFF8
ENDCHAR
STARTCHAR bracketleft.uni005B
ENCODING 91
SWIDTH 466 0
DWIDTH 16 0
BBX 6 24 4 -3
BITMAP
FC00
FC00
E000
E000
E000
E000
E000
E000
E000
E000
E000
E000
E000
E000
E000
E000
E000
E000
E000
E000
E000
E000
FC00
FC00
ENDCHAR
STARTCHAR backslash.uni005C
ENCODING 92
SWIDTH 466 0
DWIDTH 16 0
BBX 13 22 1 -2
BITMAP
E000
E000
7000
7000
3800
3800
1C00
1C00
0E00
0E00
0700
0700
0380
0380
01C0
01C0
00E0
00E0
0070
0070
0038
0038
ENDCHAR
STARTCHAR bracketright.uni005D
ENCODING 93
SWIDTH 466 0
DWIDTH 16 0
BBX 6 24 4 -3
BITMAP
FC00
FC00
1C00
1C00
1C00
1C00
1C00
1C00
1C00
1C00
1C00
1C00
1C00
1C00
1C00
1C00
1C00
1C00
1C00
1C00
1C00
1C00
FC00
FC00
ENDCHAR
STARTCHAR asciicircum.uni005E
ENCODING 94
SWIDTH 466 0
DWIDTH 16 0
BBX 14 7 0 13
BITMAP
0300
0780
0FC0
1CE0
3870
7038
E01C
ENDCHAR
STARTCHAR underscore.uni005F
ENCODING 95
SWIDTH 466 0
DWIDTH 16 0
BBX 13 2 1 -4
BITMAP
FFF8
FFF8
ENDCHAR
STARTCHAR grave.uni0060
ENCODING 96
SWIDTH 466 0
DWIDTH 16 0
BBX 6 5 4 17
BITMAP
E000
7000
3000
1800
0C00
ENDCHAR
STARTCHAR a.uni0061
ENCODING 97
SWIDTH 466 0
DWIDTH 16 0
BBX 12 15 1 0
BITMAP
1F80
7FE0
40E0
0070
0070
0070
1FF0
7FF0
F070
E070
E070
E0F0
F1F0
7F70
3E70
ENDCHAR
STARTCHAR b.uni0062
ENCODING 98
SWIDTH 466 0
DWIDTH 16 0
BBX 12 21 1 0
BITMAP
E000
E000
E000
E000
E000
E000
E780
EFC0
F9E0
F0E0
E070
E070
E070
E070
E070
E070
E070
F0E0
F9E0
EFC0
E780
ENDCHAR
STARTCHAR c.uni0063
ENCODING 99
SWIDTH 466 0
DWIDTH 16 0
BBX 11 15 2 0
BITMAP
0F80
3FC0
7860
7000
F000
E000
E000
E000
E000
E000
F000
7000
7860
3FC0
0F80
ENDCHAR
STARTCHAR d.uni0064
ENCODING 100
SWIDTH 466 0
DWIDTH 16 0
BBX 12 21 1 0
BITMAP
0070
0070
0070
0070
0070
0070
1E70
3F70
79F0
70F0
E070
E070
E070
E070
E070
E070
E070
60F0
71F0
3F70
1E70
ENDCHAR
STARTCHAR e.uni0065
ENCODING 101
SWIDTH 466 0
DWIDTH 16 0
BBX 13 15 1 0
BITMAP
0F80
3FE0
78F0
7070
E038
E038
FFF8
FFF8
E000
E000
E000
7010
7830
3FE0
0F80
ENDCHAR
STARTCHAR f.uni0066
ENCODING 102
SWIDTH 466 0
DWIDTH 16 0
BBX 12 21 1 0
BITMAP
03F0
07F0
0F00
0E00
0E00
0E00
FFF0
FFF0
0E00
0E00
0E00
0E00
0E00
0E00
0E00
0E00
0E00
0E00
0E00
7FE0
7FE0
ENDCHAR
STARTCHAR g.uni0067
ENCODING 103
SWIDTH 466 0
DWIDTH 16 0
BBX 12 21 1 -6
BITMAP
1E70
3F70
79F0
70F0
E070
E070
E070
E070
E070
E070
E070
70F0
79F0
3F70
1E70
0070
0070
00E0
20E0
3FC0
1F80
ENDCHAR
STARTCHAR h.uni0068
ENCODING 104
SWIDTH 466 0
DWIDTH 16 0
BBX 11 21 2 0
BITMAP
E000
E000
E000
E000
E000
E000
E780
EFC0
F1C0
F0E0
E0E0
E0E0
E0E0
E0E0
E0E0
E0E0
E0E0
E0E0
E0E0
E0E0
E0E0
ENDCHAR
STARTCHAR i.uni0069
ENCODING 105
SWIDTH 466 0
DWIDTH 16 0
BBX 13 21 1 0
BITMAP
0700
0700
0700
0000
0000
0000
7F00
7F00
0700
0700
0700
0700
0700
0700
0700
0700
0700
0700
0700
FFF8
FFF8
ENDCHAR
STARTCHAR j.uni006A
ENCODING 106
SWIDTH 466 0
DWIDTH 16 0
BBX 8 27 3 -6
BITMAP
0700
0700
0700
0000
0000
0000
7F00
7F00
0700
0700
0700
0700
0700
0700
0700
0700
0700
0700
0700
0700
0700
0700
0700
0700
0E00
FE00
F800
ENDCHAR
STARTCHAR k.uni006B
ENCODING 107
SWIDTH 466 0
DWIDTH 16 0
BBX 12 21 1 0
BITMAP
E000
E000
E000
E000
E000
E000
E0F0
E1E0
E3C0
E780
E700
EE00
FE00
FE00
FF00
F780
E380
E3C0
E1C0
E0E0
E0F0
ENDCHAR
STARTCHAR l.uni006C
ENCODING 108
SWIDTH 466 0
DWIDTH 16 0
BBX 13 21 1 0
BITMAP
FF00
FF00
0700
0700
0700
0700
0700
0700
0700
0700
0700
0700
0700
0700
0700
0700
0700
0700
0380
03F8
00F8
ENDCHAR
STARTCHAR m.uni006D
ENCODING 109
SWIDTH 466 0
DWIDTH 16 0
BBX 13 15 1 0
BITMAP
EEF0
EEF0
F738
E738
E738
E738
E738
E738
E738
E738
E738
E738
E738
E738
E738
ENDCHAR
STARTCHAR n.uni006E
ENCODING 110
SWIDTH 466 0
DWIDTH 16 0
BBX 11 15 2 0
BITMAP
E780
EFC0
F1C0
F0E0
E0E0
E0E0
E0E0
E0E0
E0E0
E0E0
E0E0
E0E0
E0E0
E0E0
E0E0
ENDCHAR
STARTCHAR o.uni006F
ENCODING 111
SWIDTH 466 0
DWIDTH 16 0
BBX 12 15 1 0
BITMAP
0F00
3FC0
79E0
70E0
F0F0
E070
E070
E070
E070
E070
F0F0
70E0
79E0
3FC0
0F00
ENDCHAR
STARTCHAR p.uni0070
ENCODING 112
SWIDTH 466 0
DWIDTH 16 0
BBX 12 21 1 -6
BITMAP
E780
EFC0
F9E0
F0E0
E070
E070
E070
E070
E070
E070
E070
F0E0
F9E0
EFC0
E780
E000
E000
E000
E000
E000
E000
ENDCHAR
STARTCHAR q.uni0071
ENCODING 113
SWIDTH 466 0
DWIDTH 16 0
BBX 12 21 1 -6
BITMAP
1E70
3F70
79F0
70F0
E070
E070
E070
E070
E070
E070
E070
70F0
71F0
3F70
1E70
0070
0070
0070
0070
0070
0070
ENDCHAR
STARTCHAR r.uni0072
ENCODING 114
SWIDTH 740 0
DWIDTH 16 0
BBX 13 15 1 0
BITMAP
FCF0
FDF8
1F08
1E00
1E00
1C00
1C00
1C00
1C00
1C00
1C00
1C00
1C00
FFC0
FFC0
ENDCHAR
STARTCHAR s.uni0073
ENCODING 115
SWIDTH 466 0
DWIDTH 16 0
BBX 10 15 2 0
BITMAP
3F00
7F80
F080
E000
E000
F800
7F00
3F80
07C0
01C0
01C0
01C0
83C0
FF80
7E00
ENDCHAR
STARTCHAR t.uni0074
ENCODING 116
SWIDTH 466 0
DWIDTH 16 0
BBX 12 19 1 0
BITMAP
0E00
0E00
0E00
0E00
FFF0
FFF0
0E00
0E00
0E00
0E00
0E00
0E00
0E00
0E00
0E00
0E00
0F00
07F0
03F0
ENDCHAR
STARTCHAR u.uni0075
ENCODING 117
SWIDTH 466 0
DWIDTH 16 0
BBX 11 15 2 0
BITMAP
E0E0
E0E0
E0E0
E0E0
E0E0
E0E0
E0E0
E0E0
E0E0
E0E0
E0E0
E1E0
F1E0
7EE0
3CE0
ENDCHAR
STARTCHAR v.uni0076
ENCODING 118
SWIDTH 466 0
DWIDTH 16 0
BBX 13 15 1 0
BITMAP
E038
E038
7070
7070
3060
38E0
38E0
18C0
1DC0
1DC0
0D80
0F80
0F80
0700
0700
ENDCHAR
STARTCHAR w.uni0077
ENCODING 119
SWIDTH 466 0
DWIDTH 16 0
BBX 15 15 0 0
BITMAP
E00E
E00E
600C
701C
711C
711C
739C
3BB8
3AB8
3AB8
3AB8
1EF0
1C70
1C70
1C70
ENDCHAR
STARTCHAR x.uni0078
ENCODING 120
SWIDTH 466 0
DWIDTH 16 0
BBX 14 15 0 0
BITMAP
7878
3870
1CE0
1CE0
0FC0
0780
0780
0300
0780
0FC0
1CE0
1CE0
3870
7878
F03C
ENDCHAR
STARTCHAR y.uni0079
ENCODING 121
SWIDTH 466 0
DWIDTH 16 0
BBX 13 21 1 -6
BITMAP
E038
7070
7070
7070
38E0
38E0
38E0
1DC0
1DC0
1FC0
0F80
0F80
0F80
0700
0700
0F00
0E00
0E00
1C00
7C00
7800
ENDCHAR
STARTCHAR z.uni007A
ENCODING 122
SWIDTH 466 0
DWIDTH 16 0
BBX 11 15 2 0
BITMAP
FFE0
FFE0
01E0
03C0
0380
0780
0F00
0E00
1E00
3C00
3800
7800
F000
FFE0
FFE0
ENDCHAR
STARTCHAR braceleft.uni007B
ENCODING 123
SWIDTH 466 0
DWIDTH 16 0
BBX 11 25 2 -4
BITMAP
03E0
07E0
0F00
0E00
0E00
0E00
0E00
0E00
0E00
0E00
1C00
F800
F800
1C00
0E00
0E00
0E00
0E00
0E00
0E00
0E00
0E00
0F00
07E0
03E0
ENDCHAR
STARTCHAR bar.uni007C
ENCODING 124
SWIDTH 466 0
DWIDTH 16 0
BBX 2 27 6 -6
BITMAP
C000
C000
C000
C000
C000
C000
C000
C000
C000
C000
C000
C000
C000
C000
C000
C000
C000
C000
C000
C000
C000
C000
C000
C000
C000
C000
C000
ENDCHAR
STARTCHAR braceright.uni007D
ENCODING 125
SWIDTH 466 0
DWIDTH 16 0
BBX 11 25 2 -4
BITMAP
F800
FC00
1E00
0E00
0E00
0E00
0E00
0E00
0E00
0E00
0F00
03E0
03E0
0700
0E00
0E00
0E00
0E00
0E00
0E00
0E00
0E00
1E00
FC00
F800
ENDCHAR
STARTCHAR asciitilde.uni007E
ENCODING 126
SWIDTH 466 0
DWIDTH 16 0
BBX 13 4 1 6
BITMAP
3C00
FF18
C7F8
01E0
ENDCHAR
STARTCHAR nbsp.uni00A0
ENCODING 160
SWIDTH 466 0
DWIDTH 16 0
BBX 0 0 0 0
BITMAP
ENDCHAR
STARTCHAR exclamdown.uni00A1
ENCODING 161
SWIDTH 466 0
DWIDTH 16 0
BBX 3 20 6 0
BITMAP
E000
E000
E000
0000
0000
0000
E000
E000
E000
E000
E000
E000
E000
E000
E000
E000
E000
E000
E000
E000
ENDCHAR
STARTCHAR cent.uni00A2
ENCODING 162
SWIDTH 466 0
DWIDTH 16 0
BBX 11 23 2 -4
BITMAP
0600
0600
0600
0600
0F80
3FC0
7860
7000
F000
E000
E000
E000
E000
E000
F000
7000
7860
3FC0
0F80
0600
0600
0600
0600
ENDCHAR
STARTCHAR sterling.uni00A3
ENCODING 163
SWIDTH 466 0
DWIDTH 16 0
BBX 13 20 1 0
BITMAP
03F0
0FF8
0F08
1E00
1C00
1C00
1C00
1C00
1C00
1C00
FFE0
FFE0
1C00
1C00
1C00
1C00
1C00
1C00
FFF8
FFF8
ENDCHAR
STARTCHAR currency.uni00A4
ENCODING 164
SWIDTH 466 0
DWIDTH 16 0
BBX 11 11 2 3
BITMAP
C060
EEE0
7FC0
3180
60C0
60C0
60C0
3180
7FC0
EEE0
C060
ENDCHAR
STARTCHAR yen.uni00A5
ENCODING 165
SWIDTH 740 0
DWIDTH 16 0
BBX 15 20 0 0
BITMAP
F01E
701C
783C
3838
3C78
1C70
0EE0
0EE0
3FF8
3FF8
0380
0380
3FF8
3FF8
0380
0380
0380
0380
0380
0380
ENDCHAR
STARTCHAR brokenbar.uni00A6
ENCODING 166
SWIDTH 466 0
DWIDTH 16 0
BBX 2 24 6 -5
BITMAP
C000
C000
C000
C000
C000
C000
C000
C000
C000
C000
0000
0000
0000
0000
C000
C000
C000
C000
C000
C000
C000
C000
C000
C000
ENDCHAR
STARTCHAR section.uni00A7
ENCODING 167
SWIDTH 466 0
DWIDTH 16 0
BBX 11 23 2 -3
BITMAP
1F80
3FC0
7040
6000
6000
7000
3C00
3F00
6780
C1C0
C0E0
C060
E060
7860
3EC0
0F80
0380
01C0
00C0
00C0
41C0
7F80
3F00
ENDCHAR
STARTCHAR dieresis.uni00A8
ENCODING 168
SWIDTH 466 0
DWIDTH 16 0
BBX 8 3 3 17
BITMAP
E700
E700
E700
ENDCHAR
STARTCHAR copyright.uni00A9
ENCODING 169
SWIDTH 466 0
DWIDTH 16 0
BBX 15 15 0 3
BITMAP
07C0
1830
2008
47C4
4C64
9822
9802
9802
9802
9822
4C64
47C4
2008
1830
07C0
ENDCHAR
STARTCHAR ordfeminine.uni00AA
ENCODING 170
SWIDTH 466 0
DWIDTH 16 0
BBX 9 13 3 7
BITMAP
3E00
4300
0180
0180
3F80
6180
C180
C180
C380
E780
7D80
0000
FF80
ENDCHAR
STARTCHAR guillemotleft.uni00AB
ENCODING 171
SWIDTH 466 0
DWIDTH 16 0
BBX 12 12 1 2
BITMAP
0410
0C30
1C70
38E0
71C0
E380
E380
71C0
38E0
1C70
0C30
0410
ENDCHAR
STARTCHAR logicalnot.uni00AC
ENCODING 172
SWIDTH 466 0
DWIDTH 16 0
BBX 13 6 1 5
BITMAP
FFF8
FFF8
0018
0018
0018
0018
ENDCHAR
STARTCHAR hyphensoft.uni00AD
ENCODING 173
SWIDTH 466 0
DWIDTH 16 0
BBX 7 2 4 6
BITMAP
FE00
FE00
ENDCHAR
STARTCHAR registered.uni00AE
ENCODING 174
SWIDTH 466 0
DWIDTH 16 0
BBX 15 15 0 3
BITMAP
07C0
1830
2008
4FC4
4C64
8C62
8C62
8FC2
8CC2
8C62
4C64
4C64
2008
1830
07C0
ENDCHAR
STARTCHAR macron.uni00AF
ENCODING 175
SWIDTH 466 0
DWIDTH 16 0
BBX 8 2 3 18
BITMAP
FF00
FF00
ENDCHAR
STARTCHAR degree.uni00B0
ENCODING 176
SWIDTH 466 0
DWIDTH 16 0
BBX 8 8 3 12
BITMAP
3C00
7E00
E700
C300
C300
E700
7E00
3C00
ENDCHAR
STARTCHAR plusminus.uni00B1
ENCODING 177
SWIDTH 466 0
DWIDTH 16 0
BBX 14 15 0 0
BITMAP
0300
0300
0300
0300
FFFC
FFFC
0300
0300
0300
0300
0000
0000
0000
FFFC
FFFC
ENDCHAR
STARTCHAR twosuperior.uni00B2
ENCODING 178
SWIDTH 466 0
DWIDTH 16 0
BBX 7 11 4 9
BITMAP
7800
CC00
8600
0600
0600
0C00
1800
3000
6000
C000
FE00
ENDCHAR
STARTCHAR threesuperior.uni00B3
ENCODING 179
SWIDTH 466 0
DWIDTH 16 0
BBX 8 11 3 9
BITMAP
7C00
8600
0300
0300
0600
3C00
0600
0300
0300
8600
7C00
ENDCHAR
STARTCHAR acute.uni00B4
ENCODING 180
SWIDTH 466 0
DWIDTH 16 0
BBX 6 5 4 17
BITMAP
1C00
3800
3000
6000
C000
ENDCHAR
STARTCHAR micro.uni00B5
ENCODING 181
SWIDTH 466 0
DWIDTH 16 0
BBX 13 21 1 -6
BITMAP
E0E0
E0E0
E0E0
E0E0
E0E0
E0E0
E0E0
E0E0
E0E0
E0E0
E0E0
E0E0
F1E0
FF78
EE78
E000
E000
E000
E000
E000
E000
ENDCHAR
STARTCHAR paragraph.uni00B6
ENCODING 182
SWIDTH 466 0
DWIDTH 16 0
BBX 12 23 1 -3
BITMAP
1FF0
3FF0
7F30
FF30
FF30
FF30
FF30
FF30
7F30
3F30
0F30
0330
0330
0330
0330
0330
0330
0330
0330
0330
0330
0330
0330
ENDCHAR
STARTCHAR periodcentered.uni00B7
ENCODING 183
SWIDTH 466 0
DWIDTH 16 0
BBX 4 4 5 7
BITMAP
F000
F000
F000
F000
ENDCHAR
STARTCHAR cedilla.uni00B8
ENCODING 184
SWIDTH 466 0
DWIDTH 16 0
BBX 5 5 5 -5
BITMAP
3000
1800
1800
F800
F000
ENDCHAR
STARTCHAR onesuperior.uni00B9
ENCODING 185
SWIDTH 466 0
DWIDTH 16 0
BBX 8 11 3 9
BITMAP
0800
3800
D800
1800
1800
1800
1800
1800
1800
1800
FF00
ENDCHAR
STARTCHAR ordmasculine.uni00BA
ENCODING 186
SWIDTH 466 0
DWIDTH 16 0
BBX 9 13 3 7
BITMAP
3E00
6300
6300
C180
C180
C180
C180
C180
6300
6300
3E00
0000
FF80
ENDCHAR
STARTCHAR guillemotright.uni00BB
ENCODING 187
SWIDTH 466 0
DWIDTH 16 0
BBX 12 12 1 2
BITMAP
8200
C300
E380
71C0
38E0
1C70
1C70
38E0
71C0
E380
C300
8200
ENDCHAR
STARTCHAR onequarter.uni00BC
ENCODING 188
SWIDTH 466 0
DWIDTH 16 0
BBX 15 25 0 -3
BITMAP
0400
1C00
6C00
0C00
0C00
0C00
0C00
0C00
0C00
0C00
7F8E
0070
0380
1C00
E070
0070
00B0
00B0
0130
0130
0230
0230
07F8
0030
0030
ENDCHAR
STARTCHAR onehalf.uni00BD
ENCODING 189
SWIDTH 466 0
DWIDTH 16 0
BBX 15 25 0 -3
BITMAP
0400
1C00
6C00
0C00
0C00
0C00
0C00
0C00
0C00
0C00
7F8E
0070
0380
1C00
E0F0
0118
000C
000C
000C
0018
0038
0070
00E0
01C0
01FC
ENDCHAR
STARTCHAR threequarters.uni00BE
ENCODING 190
SWIDTH 466 0
DWIDTH 16 0
BBX 15 25 0 -3
BITMAP
3E00
4300
0180
0180
0300
1E00
0300
0180
0180
4300
3E0E
0070
0380
1C00
E070
0070
00B0
00B0
0130
0130
0230
0230
07F8
0030
0030
ENDCHAR
STARTCHAR questiondown.uni00BF
ENCODING 191
SWIDTH 466 0
DWIDTH 16 0
BBX 10 20 2 0
BITMAP
0E00
0E00
0E00
0000
0000
0E00
0E00
0E00
0E00
0E00
1C00
3C00
7800
F000
E000
E000
E040
F0C0
7F80
1F00
ENDCHAR
STARTCHAR Agrave.uni00C0
ENCODING 192
SWIDTH 466 0
DWIDTH 16 0
BBX 15 25 0 0
BITMAP
0E00
0700
0380
0000
0000
0380
0380
07C0
07C0
07C0
0EE0
0EE0
0EE0
1C70
1C70
1C70
3838
3838
3FF8
7FFC
701C
701C
F01E
E00E
E00E
ENDCHAR
STARTCHAR Aacute.uni00C1
ENCODING 193
SWIDTH 466 0
DWIDTH 16 0
BBX 15 25 0 0
BITMAP
01C0
0380
0700
0000
0000
0380
0380
07C0
07C0
07C0
0EE0
0EE0
0EE0
1C70
1C70
1C70
3838
3838
3FF8
7FFC
701C
701C
F01E
E00E
E00E
ENDCHAR
STARTCHAR Acircumflex.uni00C2
ENCODING 194
SWIDTH 466 0
DWIDTH 16 0
BBX 15 25 0 0
BITMAP
0100
0380
06C0
0C60
0000
0380
0380
07C0
07C0
07C0
0EE0
0EE0
0EE0
1C70
1C70
1C70
3838
3838
3FF8
7FFC
701C
701C
F01E
E00E
E00E
ENDCHAR
STARTCHAR Atilde.uni00C3
ENCODING 195
SWIDTH 466 0
DWIDTH 16 0
BBX 15 25 0 0
BITMAP
0E60
1FE0
19C0
0000
0000
0380
0380
07C0
07C0
07C0
0EE0
0EE0
0EE0
1C70
1C70
1C70
3838
3838
3FF8
7FFC
701C
701C
F01E
E00E
E00E
ENDCHAR
STARTCHAR Adieresis.uni00C4
ENCODING 196
SWIDTH 466 0
DWIDTH 16 0
BBX 15 25 0 0
BITMAP
1C70
1C70
1C70
0000
0000
0380
0380
07C0
07C0
07C0
0EE0
0EE0
0EE0
1C70
1C70
1C70
3838
3838
3FF8
7FFC
701C
701C
F01E
E00E
E00E
ENDCHAR
STARTCHAR Aring.uni00C5
ENCODING 197
SWIDTH 466 0
DWIDTH 16 0
BBX 15 25 0 0
BITMAP
0380
06C0
0440
06C0
0380
0380
0380
07C0
07C0
07C0
0EE0
0EE0
0EE0
1C70
1C70
1C70
3838
3838
3FF8
7FFC
701C
701C
F01E
E00E
E00E
ENDCHAR
STARTCHAR AE.uni00C6
ENCODING 198
SWIDTH 466 0
DWIDTH 16 0
BBX 15 20 0 0
BITMAP
07FE
07FE
0FE0
0EE0
0EE0
0EE0
1CE0
1CE0
1CFC
1CFC
38E0
38E0
38E0
3FE0
7FE0
70E0
70E0
70E0
E0FE
E0FE
ENDCHAR
STARTCHAR Ccedilla.uni00C7
ENCODING 199
SWIDTH 466 0
DWIDTH 16 0
BBX 12 25 1 -5
BITMAP
07E0
1FF0
3C30
7810
7000
7000
E000
E000
E000
E000
E000
E000
E000
E000
7000
7000
7810
3C30
1FF0
07E0
0300
0180
0180
0F80
0F00
ENDCHAR
STARTCHAR Egrave.uni00C8
ENCODING 200
SWIDTH 466 0
DWIDTH 16 0
BBX 12 25 1 0
BITMAP
0E00
0700
0380
0000
0000
FFF0
FFF0
E000
E000
E000
E000
E000
E000
FFE0
FFE0
E000
E000
E000
E000
E000
E000
E000
E000
FFF0
FFF0
ENDCHAR
STARTCHAR Eacute.uni00C9
ENCODING 201
SWIDTH 466 0
DWIDTH 16 0
BBX 12 25 1 0
BITMAP
01C0
0380
0700
0000
0000
FFF0
FFF0
E000
E000
E000
E000
E000
E000
FFE0
FFE0
E000
E000
E000
E000
E000
E000
E000
E000
FFF0
FFF0
ENDCHAR
STARTCHAR Ecircumflex.uni00CA
ENCODING 202
SWIDTH 466 0
DWIDTH 16 0
BBX 12 25 1 0
BITMAP
0600
0F00
1980
30C0
0000
FFF0
FFF0
E000
E000
E000
E000
E000
E000
FFE0
FFE0
E000
E000
E000
E000
E000
E000
E000
E000
FFF0
FFF0
ENDCHAR
STARTCHAR Edieresis.uni00CB
ENCODING 203
SWIDTH 466 0
DWIDTH 16 0
BBX 12 25 1 0
BITMAP
38E0
38E0
38E0
0000
0000
FFF0
FFF0
E000
E000
E000
E000
E000
E000
FFE0
FFE0
E000
E000
E000
E000
E000
E000
E000
E000
FFF0
FFF0
ENDCHAR
STARTCHAR Igrave.uni00CC
ENCODING 204
SWIDTH 466 0
DWIDTH 16 0
BBX 11 25 2 0
BITMAP
3800
1C00
0E00
0000
0000
FFE0
FFE0
0E00
0E00
0E00
0E00
0E00
0E00
0E00
0E00
0E00
0E00
0E00
0E00
0E00
0E00
0E00
0E00
FFE0
FFE0
ENDCHAR
STARTCHAR Iacute.uni00CD
ENCODING 205
SWIDTH 466 0
DWIDTH 16 0
BBX 11 25 2 0
BITMAP
0700
0E00
1C00
0000
0000
FFE0
FFE0
0E00
0E00
0E00
0E00
0E00
0E00
0E00
0E00
0E00
0E00
0E00
0E00
0E00
0E00
0E00
0E00
FFE0
FFE0
ENDCHAR
STARTCHAR Icircumflex.uni00CE
ENCODING 206
SWIDTH 466 0
DWIDTH 16 0
BBX 11 25 2 0
BITMAP
0400
0E00
1B00
3180
0000
FFE0
FFE0
0E00
0E00
0E00
0E00
0E00
0E00
0E00
0E00
0E00
0E00
0E00
0E00
0E00
0E00
0E00
0E00
FFE0
FFE0
ENDCHAR
STARTCHAR Idieresis.uni00CF
ENCODING 207
SWIDTH 466 0
DWIDTH 16 0
BBX 11 25 2 0
BITMAP
71C0
71C0
71C0
0000
0000
FFE0
FFE0
0E00
0E00
0E00
0E00
0E00
0E00
0E00
0E00
0E00
0E00
0E00
0E00
0E00
0E00
0E00
0E00
FFE0
FFE0
ENDCHAR
STARTCHAR Eth.uni00D0
ENCODING 208
SWIDTH 466 0
DWIDTH 16 0
BBX 13 20 1 0
BITMAP
7F00
7FC0
70E0
7070
7070
7030
7038
7038
7038
FE38
FE38
7038
7038
7038
7038
7070
7070
70E0
7FC0
7F00
ENDCHAR
STARTCHAR Ntilde.uni00D1
ENCODING 209
SWIDTH 466 0
DWIDTH 16 0
BBX 12 25 1 0
BITMAP
1CC0
3FC0
3380
0000
0000
F070
F070
F070
F870
F870
E870
EC70
EC70
E470
E670
E670
E270
E370
E370
E170
E1F0
E1F0
E0F0
E0F0
E0F0
ENDCHAR
STARTCHAR Ograve.uni00D2
ENCODING 210
SWIDTH 466 0
DWIDTH 16 0
BBX 13 25 1 0
BITMAP
0E00
0700
0380
0000
0000
0F80
3FE0
38E0
7070
7070
E038
E038
E038
E038
E038
E038
E038
E038
E038
E038
7070
7070
38E0
3FE0
0F80
ENDCHAR
STARTCHAR Oacute.uni00D3
ENCODING 211
SWIDTH 466 0
DWIDTH 16 0
BBX 13 25 1 0
BITMAP
01C0
0380
0700
0000
0000
0F80
3FE0
38E0
7070
7070
E038
E038
E038
E038
E038
E038
E038
E038
E038
E038
7070
7070
38E0
3FE0
0F80
ENDCHAR
STARTCHAR Ocircumflex.uni00D4
ENCODING 212
SWIDTH 466 0
DWIDTH 16 0
BBX 13 25 1 0
BITMAP
0200
0700
0D80
18C0
0000
0F80
3FE0
38E0
7070
7070
E038
E038
E038
E038
E038
E038
E038
E038
E038
E038
7070
7070
38E0
3FE0
0F80
ENDCHAR
STARTCHAR Otilde.uni00D5
ENCODING 213
SWIDTH 466 0
DWIDTH 16 0
BBX 13 25 1 0
BITMAP
0E60
1FE0
19C0
0000
0000
0F80
3FE0
38E0
7070
7070
E038
E038
E038
E038
E038
E038
E038
E038
E038
E038
7070
7070
38E0
3FE0
0F80
ENDCHAR
STARTCHAR Odieresis.uni00D6
ENCODING 214
SWIDTH 466 0
DWIDTH 16 0
BBX 13 25 1 0
BITMAP
38E0
38E0
38E0
0000
0000
0F80
3FE0
38E0
7070
7070
E038
E038
E038
E038
E038
E038
E038
E038
E038
E038
7070
7070
38E0
3FE0
0F80
ENDCHAR
STARTCHAR multiply.uni00D7
ENCODING 215
SWIDTH 466 0
DWIDTH 16 0
BBX 12 12 1 3
BITMAP
4020
E070
70E0
39C0
1F80
0F00
0F00
1F80
39C0
70E0
E070
4020
ENDCHAR
STARTCHAR Oslash.uni00D8
ENCODING 216
SWIDTH 466 0
DWIDTH 16 0
BBX 15 20 0 0
BITMAP
07C6
1FEC
1C7C
3838
3838
707C
707C
70DC
719C
719C
731C
761C
761C
7C1C
781C
3838
3838
7C70
6FF0
C7C0
ENDCHAR
STARTCHAR Ugrave.uni00D9
ENCODING 217
SWIDTH 466 0
DWIDTH 16 0
BBX 12 25 1 0
BITMAP
0E00
0700
0380
0000
0000
E070
E070
E070
E070
E070
E070
E070
E070
E070
E070
E070
E070
E070
E070
E070
E070
E070
70E0
3FC0
1F80
ENDCHAR
STARTCHAR Uacute.uni00DA
ENCODING 218
SWIDTH 466 0
DWIDTH 16 0
BBX 12 25 1 0
BITMAP
01C0
0380
0700
0000
0000
E070
E070
E070
E070
E070
E070
E070
E070
E070
E070
E070
E070
E070
E070
E070
E070
E070
70E0
3FC0
1F80
ENDCHAR
STARTCHAR Ucircumflex.uni00DB
ENCODING 219
SWIDTH 466 0
DWIDTH 16 0
BBX 12 25 1 0
BITMAP
0600
0F00
1980
30C0
0000
E070
E070
E070
E070
E070
E070
E070
E070
E070
E070
E070
E070
E070
E070
E070
E070
E070
70E0
3FC0
1F80
ENDCHAR
STARTCHAR Udieresis.uni00DC
ENCODING 220
SWIDTH 466 0
DWIDTH 16 0
BBX 12 25 1 0
BITMAP
39C0
39C0
39C0
0000
0000
E070
E070
E070
E070
E070
E070
E070
E070
E070
E070
E070
E070
E070
E070
E070
E070
E070
70E0
3FC0
1F80
ENDCHAR
STARTCHAR Yacute.uni00DD
ENCODING 221
SWIDTH 466 0
DWIDTH 16 0
BBX 15 25 0 0
BITMAP
01C0
0380
0700
0000
0000
F01E
701C
783C
3838
3C78
1C70
0EE0
0EE0
07C0
07C0
0380
0380
0380
0380
0380
0380
0380
0380
0380
0380
ENDCHAR
STARTCHAR Thorn.uni00DE
ENCODING 222
SWIDTH 466 0
DWIDTH 16 0
BBX 12 20 1 0
BITMAP
E000
E000
E000
E000
FF80
FFE0
E0E0
E070
E070
E070
E070
E070
E0E0
FFE0
FF80
E000
E000
E000
E000
E000
ENDCHAR
STARTCHAR germandbls.uni00DF
ENCODING 223
SWIDTH 466 0
DWIDTH 16 0
BBX 12 21 1 0
BITMAP
1E00
7F80
7380
E1C0
E1C0
E1C0
E380
E700
EE00
EE00
EF00
E780
E3C0
E1E0
E0E0
E070
E070
E070
E8F0
EFE0
E7C0
ENDCHAR
STARTCHAR agrave.uni00E0
ENCODING 224
SWIDTH 466 0
DWIDTH 16 0
BBX 12 22 1 0
BITMAP
3800
1C00
0C00
0600
0300
0000
0000
1F80
7FE0
40E0
0070
0070
0070
1FF0
7FF0
F070
E070
E070
E0F0
F1F0
7F70
3E70
ENDCHAR
STARTCHAR aacute.uni00E1
ENCODING 225
SWIDTH 466 0
DWIDTH 16 0
BBX 12 22 1 0
BITMAP
01C0
0380
0300
0600
0C00
0000
0000
1F80
7FE0
40E0
0070
0070
0070
1FF0
7FF0
F070
E070
E070
E0F0
F1F0
7F70
3E70
ENDCHAR
STARTCHAR acircumflex.uni00E2
ENCODING 226
SWIDTH 466 0
DWIDTH 16 0
BBX 12 21 1 0
BITMAP
0600
0F00
1980
30C0
0000
0000
1F80
7FE0
40E0
0070
0070
0070
1FF0
7FF0
F070
E070
E070
E0F0
F1F0
7F70
3E70
ENDCHAR
STARTCHAR atilde.uni00E3
ENCODING 227
SWIDTH 466 0
DWIDTH 16 0
BBX 12 20 1 0
BITMAP
1CC0
3FC0
3380
0000
0000
1F80
7FE0
40E0
0070
0070
0070
1FF0
7FF0
F070
E070
E070
E0F0
F1F0
7F70
3E70
ENDCHAR
STARTCHAR adieresis.uni00E4
ENCODING 228
SWIDTH 466 0
DWIDTH 16 0
BBX 12 20 1 0
BITMAP
38E0
38E0
38E0
0000
0000
1F80
7FE0
40E0
0070
0070
0070
1FF0
7FF0
F070
E070
E070
E0F0
F1F0
7F70
3E70
ENDCHAR
STARTCHAR aring.uni00E5
ENCODING 229
SWIDTH 466 0
DWIDTH 16 0
BBX 12 22 1 0
BITMAP
0700
0D80
0880
0D80
0700
0000
0000
1F80
7FE0
40E0
0070
0070
0070
1FF0
7FF0
F070
E070
E070
E0F0
F1F0
7F70
3E70
ENDCHAR
STARTCHAR ae.uni00E6
ENCODING 230
SWIDTH 466 0
DWIDTH 16 0
BBX 15 15 0 0
BITMAP
3E78
7F7C
43CE
01CE
01CE
01CE
1FFE
7FFE
F1C0
E1C0
E1C0
E1C0
F3E2
7F7E
3E3C
ENDCHAR
STARTCHAR ccedilla.uni00E7
ENCODING 231
SWIDTH 466 0
DWIDTH 16 0
BBX 11 20 2 -5
BITMAP
0F80
3FC0
7860
7000
F000
E000
E000
E000
E000
E000
E000
7000
7860
3FC0
0F80
0600
0300
0300
1F00
1E00
ENDCHAR
STARTCHAR egrave.uni00E8
ENCODING 232
SWIDTH 466 0
DWIDTH 16 0
BBX 13 22 1 0
BITMAP
3800
1C00
0C00
0600
0300
0000
0000
0F80
3FE0
78F0
7070
E038
E038
FFF8
FFF8
E000
E000
E000
7010
7830
3FE0
0F80
ENDCHAR
STARTCHAR eacute.uni00E9
ENCODING 233
SWIDTH 466 0
DWIDTH 16 0
BBX 13 22 1 0
BITMAP
01C0
0380
0300
0600
0C00
0000
0000
0F80
3FE0
78F0
7070
E038
E038
FFF8
FFF8
E000
E000
E000
7010
7830
3FE0
0F80
ENDCHAR
STARTCHAR ecircumflex.uni00EA
ENCODING 234
SWIDTH 466 0
DWIDTH 16 0
BBX 13 21 1 0
BITMAP
0600
0F00
1980
30C0
0000
0000
0F80
3FE0
78F0
7070
E038
E038
FFF8
FFF8
E000
E000
E000
7010
7830
3FE0
0F80
ENDCHAR
STARTCHAR edieresis.uni00EB
ENCODING 235
SWIDTH 466 0
DWIDTH 16 0
BBX 13 20 1 0
BITMAP
38E0
38E0
38E0
0000
0000
0F80
3FE0
78F0
7070
E038
E038
FFF8
FFF8
E000
E000
E000
7010
7830
3FE0
0F80
ENDCHAR
STARTCHAR igrave.uni00EC
ENCODING 236
SWIDTH 466 0
DWIDTH 16 0
BBX 13 22 1 0
BITMAP
3800
1C00
0C00
0600
0300
0000
0000
7F00
7F00
0700
0700
0700
0700
0700
0700
0700
0700
0700
0700
0700
FFF8
FFF8
ENDCHAR
STARTCHAR iacute.uni00ED
ENCODING 237
SWIDTH 466 0
DWIDTH 16 0
BBX 13 22 1 0
BITMAP
01C0
0380
0300
0600
0C00
0000
0000
7F00
7F00
0700
0700
0700
0700
0700
0700
0700
0700
0700
0700
0700
FFF8
FFF8
ENDCHAR
STARTCHAR icircumflex.uni00EE
ENCODING 238
SWIDTH 466 0
DWIDTH 16 0
BBX 13 21 1 0
BITMAP
0600
0F00
1980
30C0
0000
0000
7F00
7F00
0700
0700
0700
0700
0700
0700
0700
0700
0700
0700
0700
FFF8
FFF8
ENDCHAR
STARTCHAR idieresis.uni00EF
ENCODING 239
SWIDTH 466 0
DWIDTH 16 0
BBX 13 20 1 0
BITMAP
39C0
39C0
39C0
0000
0000
7F00
7F00
0700
0700
0700
0700
0700
0700
0700
0700
0700
0700
0700
FFF8
FFF8
ENDCHAR
STARTCHAR eth.uni00F0
ENCODING 240
SWIDTH 466 0
DWIDTH 16 0
BBX 12 21 1 0
BITMAP
3800
3CC0
1FC0
0F00
3F00
3780
07C0
1FC0
3FE0
78E0
70F0
E070
E070
E070
E070
E070
E070
70E0
79E0
3FC0
1F80
ENDCHAR
STARTCHAR ntilde.uni00F1
ENCODING 241
SWIDTH 466 0
DWIDTH 16 0
BBX 11 20 2 0
BITMAP
1CC0
3FC0
3380
0000
0000
E780
EFC0
F1C0
F0E0
E0E0
E0E0
E0E0
E0E0
E0E0
E0E0
E0E0
E0E0
E0E0
E0E0
E0E0
ENDCHAR
STARTCHAR ograve.uni00F2
ENCODING 242
SWIDTH 466 0
DWIDTH 16 0
BBX 12 22 1 0
BITMAP
3800
1C00
0C00
0600
0300
0000
0000
0F00
3FC0
79E0
70E0
F0F0
E070
E070
E070
E070
E070
F0F0
70E0
79E0
3FC0
0F00
ENDCHAR
STARTCHAR oacute.uni00F3
ENCODING 243
SWIDTH 466 0
DWIDTH 16 0
BBX 12 22 1 0
BITMAP
01C0
0380
0300
0600
0C00
0000
0000
0F00
3FC0
79E0
70E0
F0F0
E070
E070
E070
E070
E070
F0F0
70E0
79E0
3FC0
0F00
ENDCHAR
STARTCHAR ocircumflex.uni00F4
ENCODING 244
SWIDTH 466 0
DWIDTH 16 0
BBX 12 21 1 0
BITMAP
0600
0F00
1980
30C0
0000
0000
0F00
3FC0
79E0
70E0
F0F0
E070
E070
E070
E070
E070
F0F0
70E0
79E0
3FC0
0F00
ENDCHAR
STARTCHAR otilde.uni00F5
ENCODING 245
SWIDTH 466 0
DWIDTH 16 0
BBX 12 20 1 0
BITMAP
1CC0
3FC0
3380
0000
0000
0F00
3FC0
79E0
70E0
F0F0
E070
E070
E070
E070
E070
F0F0
70E0
79E0
3FC0
0F00
ENDCHAR
STARTCHAR odieresis.uni00F6
ENCODING 246
SWIDTH 466 0
DWIDTH 16 0
BBX 12 20 1 0
BITMAP
39C0
39C0
39C0
0000
0000
0F00
3FC0
79E0
70E0
F0F0
E070
E070
E070
E070
E070
F0F0
70E0
79E0
3FC0
0F00
ENDCHAR
STARTCHAR divide.uni00F7
ENCODING 247
SWIDTH 466 0
DWIDTH 16 0
BBX 13 12 1 2
BITMAP
0700
0700
0700
0000
0000
FFF8
FFF8
0000
0000
0700
0700
0700
ENDCHAR
STARTCHAR oslash.uni00F8
ENCODING 248
SWIDTH 466 0
DWIDTH 16 0
BBX 14 15 0 0
BITMAP
0784
1FEC
3CF8
3870
7878
70F8
71B8
7338
7638
7C38
7878
3870
7CF0
DFE0
8780
ENDCHAR
STARTCHAR ugrave.uni00F9
ENCODING 249
SWIDTH 466 0
DWIDTH 16 0
BBX 11 22 2 0
BITMAP
3800
1C00
0C00
0600
0300
0000
0000
E0E0
E0E0
E0E0
E0E0
E0E0
E0E0
E0E0
E0E0
E0E0
E0E0
E0E0
E1E0
F1E0
7EE0
3CE0
ENDCHAR
STARTCHAR uacute.uni00FA
ENCODING 250
SWIDTH 466 0
DWIDTH 16 0
BBX 11 22 2 0
BITMAP
01C0
0380
0300
0600
0C00
0000
0000
E0E0
E0E0
E0E0
E0E0
E0E0
E0E0
E0E0
E0E0
E0E0
E0E0
E0E0
E1E0
F1E0
7EE0
3CE0
ENDCHAR
STARTCHAR x-hat.uni0302
ENCODING 770
SWIDTH 466 0
DWIDTH 16 0
BBX 14 21 0 0
BITMAP
0300
0FC0
1CE0
7038
0000
0000
7878
3870
1CE0
1CE0
0FC0
0780
0780
0300
0780
0FC0
1CE0
1CE0
3870
7878
F03C
ENDCHAR
STARTCHAR x-bar.uni0304
ENCODING 772
SWIDTH 466 0
DWIDTH 16 0
BBX 14 20 0 0
BITMAP
3FF0
3FF0
0000
0000
0000
7878
3870
1CE0
1CE0
0FC0
0780
0780
0300
0780
0FC0
1CE0
1CE0
3870
7878
F03C
ENDCHAR
STARTCHAR y-hat.uni0177
ENCODING 375
SWIDTH 466 0
DWIDTH 16 0
BBX 13 27 1 -6
BITMAP
0700
1FC0
38E0
E038
0000
0000
E038
7070
7070
7070
38E0
38E0
38E0
1DC0
1DC0
1FC0
0F80
0F80
0F80
0700
0700
0F00
0E00
0E00
1C00
7C00
7800
ENDCHAR
STARTCHAR thorn.uni00FE
ENCODING 254
SWIDTH 466 0
DWIDTH 16 0
BBX 12 27 1 -6
BITMAP
E000
E000
E000
E000
E000
E000
E780
EFC0
F9E0
F0E0
E070
E070
E070
E070
E070
E070
E070
F0E0
F9E0
EFC0
E780
E000
E000
E000
E000
E000
E000
ENDCHAR
STARTCHAR y-bar.uni0233
ENCODING 563
SWIDTH 466 0
DWIDTH 16 0
BBX 13 26 1 -6
BITMAP
3FE0
3FE0
0000
0000
0000
E038
7070
7070
7070
38E0
38E0
38E0
1DC0
1DC0
1FC0
0F80
0F80
0F80
0700
0700
0F00
0E00
0E00
1C00
7C00
7800
ENDCHAR
STARTCHAR Cacute.uni0106
ENCODING 262
SWIDTH 466 0
DWIDTH 16 0
BBX 12 25 1 0
BITMAP
00E0
01C0
0380
0000
0000
07E0
1FF0
3C30
7810
7000
7000
E000
E000
E000
E000
E000
E000
E000
E000
7000
7000
7810
3C30
1FF0
07E0
ENDCHAR
STARTCHAR cacute.uni0107
ENCODING 263
SWIDTH 466 0
DWIDTH 16 0
BBX 11 22 2 0
BITMAP
00E0
01C0
0180
0300
0600
0000
0000
0F80
3FC0
7860
7000
F000
E000
E000
E000
E000
E000
F000
7000
7860
3FC0
0F80
ENDCHAR
STARTCHAR Ccaron.uni010C
ENCODING 268
SWIDTH 466 0
DWIDTH 16 0
BBX 12 25 1 0
BITMAP
0C30
0660
03C0
0180
0000
07E0
1FF0
3C30
7810
7000
7000
E000
E000
E000
E000
E000
E000
E000
E000
7000
7000
7810
3C30
1FF0
07E0
ENDCHAR
STARTCHAR ccaron.uni010D
ENCODING 269
SWIDTH 466 0
DWIDTH 16 0
BBX 11 21 2 0
BITMAP
30C0
1980
0F00
0600
0000
0000
0F80
3FC0
7860
7000
F000
E000
E000
E000
E000
E000
F000
7000
7860
3FC0
0F80
ENDCHAR
STARTCHAR dcroat.uni0111
ENCODING 273
SWIDTH 466 0
DWIDTH 16 0
BBX 14 21 0 0
BITMAP
0070
0070
0070
07FC
07FC
0070
1E70
3F70
79F0
70F0
E070
E070
E070
E070
E070
E070
E070
70F0
71F0
3F70
1E70
ENDCHAR
STARTCHAR Gbreve.uni011E
ENCODING 286
SWIDTH 466 0
DWIDTH 16 0
BBX 13 25 1 0
BITMAP
1860
1CE0
0FC0
0780
0000
07E0
1FF0
3C30
7810
7000
7000
E000
E000
E000
E000
E1F8
E1F8
E038
E038
6038
7038
7038
3C38
1FF8
07E0
ENDCHAR
STARTCHAR gbreve.uni011F
ENCODING 287
SWIDTH 466 0
DWIDTH 16 0
BBX 12 28 1 -6
BITMAP
30C0
39C0
1F80
0F00
0000
0000
0000
1E70
3F70
79F0
70F0
E070
E070
E070
E070
E070
E070
E070
70F0
79F0
3F70
1E70
0070
0070
00E0
20E0
3FC0
1F80
ENDCHAR
STARTCHAR Idotaccent.uni0130
ENCODING 304
SWIDTH 466 0
DWIDTH 16 0
BBX 11 25 2 0
BITMAP
0E00
0E00
0E00
0000
0000
FFE0
FFE0
0E00
0E00
0E00
0E00
0E00
0E00
0E00
0E00
0E00
0E00
0E00
0E00
0E00
0E00
0E00
0E00
FFE0
FFE0
ENDCHAR
STARTCHAR dotlessi.uni0131
ENCODING 305
SWIDTH 466 0
DWIDTH 16 0
BBX 13 15 1 0
BITMAP
7F00
7F00
0700
0700
0700
0700
0700
0700
0700
0700
0700
0700
0700
FFF8
FFF8
ENDCHAR
STARTCHAR Lslash.uni0141
ENCODING 321
SWIDTH 466 0
DWIDTH 16 0
BBX 13 20 1 0
BITMAP
3800
3800
3800
3800
3800
3800
3800
38E0
3BE0
3F80
3E00
F800
F800
3800
3800
3800
3800
3800
3FF8
3FF8
ENDCHAR
STARTCHAR lslash.uni0142
ENCODING 322
SWIDTH 466 0
DWIDTH 16 0
BBX 12 21 1 0
BITMAP
FE00
FE00
0E00
0E00
0E00
0E00
0E30
0EF0
0FE0
0F80
3E00
FE00
EE00
0E00
0E00
0E00
0E00
0E00
0700
07F0
01F0
ENDCHAR
STARTCHAR OE.uni0152
ENCODING 338
SWIDTH 466 0
DWIDTH 16 0
BBX 15 20 0 0
BITMAP
0FFE
3FFE
78E0
70E0
70E0
E0E0
E0E0
E0E0
E0FC
E0FC
E0E0
E0E0
E0E0
E0E0
E0E0
70E0
70E0
78E0
3FFE
0FFE
ENDCHAR
STARTCHAR oe.uni0153
ENCODING 339
SWIDTH 466 0
DWIDTH 16 0
BBX 15 15 0 0
BITMAP
1E38
7F7C
73CE
E1CE
E1CE
E1CE
E1FE
E1FE
E1C0
E1C0
E1C0
E1C0
73E2
7F7E
1E3C
ENDCHAR
STARTCHAR Scedilla.uni015E
ENCODING 350
SWIDTH 466 0
DWIDTH 16 0
BBX 12 25 1 -5
BITMAP
1F80
3FE0
78E0
E020
E000
E000
E000
F000
7F00
3FC0
0FE0
01E0
00F0
0070
0070
0070
80F0
E1E0
FFC0
3F80
0300
0180
0180
0F80
0F00
ENDCHAR
STARTCHAR scedilla.uni015F
ENCODING 351
SWIDTH 466 0
DWIDTH 16 0
BBX 10 20 2 -5
BITMAP
3F00
7F80
F080
E000
E000
F800
7F00
3F80
07C0
01C0
01C0
01C0
83C0
FF80
7E00
0C00
0600
0600
3E00
3C00
ENDCHAR
STARTCHAR Scaron.uni0160
ENCODING 352
SWIDTH 466 0
DWIDTH 16 0
BBX 12 25 1 0
BITMAP
1860
0CC0
0780
0300
0000
1F80
3FE0
78E0
E020
E000
E000
E000
F000
7F00
3FC0
0FE0
01E0
00F0
0070
0070
0070
80F0
E1E0
FFC0
3F80
ENDCHAR
STARTCHAR scaron.uni0161
ENCODING 353
SWIDTH 466 0
DWIDTH 16 0
BBX 10 21 2 0
BITMAP
6180
3300
1E00
0C00
0000
0000
3F00
7F80
F080
E000
E000
F800
7F00
3F80
07C0
01C0
01C0
01C0
83C0
FF80
7E00
ENDCHAR
STARTCHAR Ydieresis.uni0178
ENCODING 376
SWIDTH 466 0
DWIDTH 16 0
BBX 15 25 0 0
BITMAP
1C70
1C70
1C70
0000
0000
F01E
701C
783C
3838
3C78
1C70
0EE0
0EE0
07C0
07C0
0380
0380
0380
0380
0380
0380
0380
0380
0380
0380
ENDCHAR
STARTCHAR Zcaron.uni017D
ENCODING 381
SWIDTH 466 0
DWIDTH 16 0
BBX 13 25 1 0
BITMAP
1860
0CC0
0780
0300
0000
FFF8
FFF8
0078
0070
00F0
01E0
01C0
03C0
0380
0780
0F00
0E00
1E00
1C00
3C00
7800
7000
F000
FFF8
FFF8
ENDCHAR
STARTCHAR zcaron.uni017E
ENCODING 382
SWIDTH 466 0
DWIDTH 16 0
BBX 11 21 2 0
BITMAP
30C0
1980
0F00
0600
0000
0000
FFE0
FFE0
01E0
03C0
0380
0780
0F00
0E00
1E00
3C00
3800
7800
F000
FFE0
FFE0
ENDCHAR
STARTCHAR florin.uni0192
ENCODING 402
SWIDTH 466 0
DWIDTH 16 0
BBX 15 27 0 -6
BITMAP
001C
007E
0070
00E0
00E0
00E0
00E0
00E0
01C0
01C0
0FF8
0FF8
01C0
01C0
01C0
0380
0380
0380
0380
0380
0380
0700
0700
0700
8E00
FE00
7800
ENDCHAR
STARTCHAR circumflex.uni02C6
ENCODING 710
SWIDTH 466 0
DWIDTH 16 0
BBX 8 4 3 17
BITMAP
1800
3C00
6600
C300
ENDCHAR
STARTCHAR caron.uni02C7
ENCODING 711
SWIDTH 466 0
DWIDTH 16 0
BBX 8 4 3 17
BITMAP
C300
6600
3C00
1800
ENDCHAR
STARTCHAR breve.uni02D8
ENCODING 728
SWIDTH 466 0
DWIDTH 16 0
BBX 8 4 3 18
BITMAP
C300
E700
7E00
3C00
ENDCHAR
STARTCHAR dotaccent.uni02D9
ENCODING 729
SWIDTH 466 0
DWIDTH 16 0
BBX 3 3 6 17
BITMAP
E000
E000
E000
ENDCHAR
STARTCHAR ring.uni02DA
ENCODING 730
SWIDTH 466 0
DWIDTH 16 0
BBX 5 5 5 17
BITMAP
7000
D800
8800
D800
7000
ENDCHAR
STARTCHAR ogonek.uni02DB
ENCODING 731
SWIDTH 466 0
DWIDTH 16 0
BBX 5 5 5 -5
BITMAP
6000
C000
C000
F800
7800
ENDCHAR
STARTCHAR tilde.uni02DC
ENCODING 732
SWIDTH 466 0
DWIDTH 16 0
BBX 8 3 3 17
BITMAP
7300
FF00
CE00
ENDCHAR
STARTCHAR hungarumlaut.uni02DD
ENCODING 733
SWIDTH 466 0
DWIDTH 16 0
BBX 9 5 3 17
BITMAP
3B80
3300
6600
6600
CC00
ENDCHAR
STARTCHAR Sigma.uni03A3
ENCODING 931
SWIDTH 466 0
DWIDTH 16 0
BBX 13 20 1 0
BITMAP
7FF0
7FF0
7FF0
3800
1C00
0E00
0700
0380
01C0
00E0
01C0
0380
0700
0E00
1C00
3800
7000
FFF8
FFF8
FFF8
ENDCHAR
STARTCHAR Omega.uni03A9
ENCODING 937
SWIDTH 466 0
DWIDTH 16 0
BBX 13 19 1 0
BITMAP
0F80
3FE0
38E0
7070
7070
E038
E038
E038
E038
E038
E038
E038
E038
6030
7070
3060
18C0
FDF8
FDF8
ENDCHAR
STARTCHAR mu.uni03BC
ENCODING 956
SWIDTH 466 0
DWIDTH 16 0
BBX 12 20 1 -5
BITMAP
E0E0
E0E0
E0E0
E0E0
E0E0
E0E0
E0E0
E0E0
E0E0
E0E0
E0E0
E0E0
F1E0
FFF0
EF30
E000
E000
E000
E000
E000
ENDCHAR
STARTCHAR pi.uni03C0
ENCODING 960
SWIDTH 466 0
DWIDTH 16 0
BBX 14 15 0 0
BITMAP
FFFC
FFFC
3870
3870
3870
3870
3870
3870
3870
3870
3870
3870
3870
387C
383C
ENDCHAR
STARTCHAR exponent.uni1D07
ENCODING 7431
SWIDTH 466 0
DWIDTH 16 0
BBX 10 15 2 0
BITMAP
FFC0
FFC0
E000
E000
E000
E000
FF80
FF80
E000
E000
E000
E000
E000
FFC0
FFC0
ENDCHAR
STARTCHAR endash.uni2013
ENCODING 8211
SWIDTH 466 0
DWIDTH 16 0
BBX 9 2 3 6
BITMAP
FF80
FF80
ENDCHAR
STARTCHAR emdash.uni2014
ENCODING 8212
SWIDTH 466 0
DWIDTH 16 0
BBX 13 2 1 6
BITMAP
FFF8
FFF8
ENDCHAR
STARTCHAR quoteleft.uni2018
ENCODING 8216
SWIDTH 466 0
DWIDTH 16 0
BBX 4 8 5 13
BITMAP
3000
7000
7000
6000
E000
E000
E000
E000
ENDCHAR
STARTCHAR quoteright.uni2019
ENCODING 8217
SWIDTH 466 0
DWIDTH 16 0
BBX 4 8 5 13
BITMAP
7000
7000
7000
7000
6000
E000
E000
C000
ENDCHAR
STARTCHAR quotesinglbase.uni201A
ENCODING 8218
SWIDTH 466 0
DWIDTH 16 0
BBX 4 8 5 -4
BITMAP
7000
7000
7000
7000
6000
E000
E000
C000
ENDCHAR
STARTCHAR quotedblleft.uni201C
ENCODING 8220
SWIDTH 466 0
DWIDTH 16 0
BBX 10 8 2 13
BITMAP
30C0
71C0
71C0
6180
E380
E380
E380
E380
ENDCHAR
STARTCHAR quotedblright.uni201D
ENCODING 8221
SWIDTH 466 0
DWIDTH 16 0
BBX 10 8 2 13
BITMAP
71C0
71C0
71C0
71C0
6180
E380
E380
C300
ENDCHAR
STARTCHAR quotedblbase.uni201E
ENCODING 8222
SWIDTH 466 0
DWIDTH 16 0
BBX 10 8 2 -4
BITMAP
71C0
71C0
71C0
71C0
6180
E380
E380
C300
ENDCHAR
STARTCHAR dagger.uni2020
ENCODING 8224
SWIDTH 466 0
DWIDTH 16 0
BBX 12 23 1 -3
BITMAP
0600
0600
0600
0600
0600
0600
FFF0
FFF0
0600
0600
0600
0600
0600
0600
0600
0600
0600
0600
0600
0600
0600
0600
0600
ENDCHAR
STARTCHAR daggerdbl.uni2021
ENCODING 8225
SWIDTH 466 0
DWIDTH 16 0
BBX 12 23 1 -3
BITMAP
0600
0600
0600
0600
0600
0600
FFF0
FFF0
0600
0600
0600
0600
0600
0600
0600
FFF0
FFF0
0600
0600
0600
0600
0600
0600
ENDCHAR
STARTCHAR bullet.uni2022
ENCODING 8226
SWIDTH 466 0
DWIDTH 16 0
BBX 8 8 3 6
BITMAP
3C00
7E00
FF00
FF00
FF00
FF00
7E00
3C00
ENDCHAR
STARTCHAR ellipsis.uni2026
ENCODING 8230
SWIDTH 466 0
DWIDTH 16 0
BBX 13 4 1 0
BITMAP
E738
E738
E738
E738
ENDCHAR
STARTCHAR perthousand.uni2030
ENCODING 8240
SWIDTH 466 0
DWIDTH 16 0
BBX 15 20 0 0
BITMAP
3800
7C00
C600
C600
C600
C61C
7C70
39C0
0700
1C00
7000
0000
1C38
3E7C
63C6
63C6
63C6
63C6
3E7C
1C38
ENDCHAR
STARTCHAR guilsinglleft.uni2039
ENCODING 8249
SWIDTH 466 0
DWIDTH 16 0
BBX 6 12 4 2
BITMAP
0400
0C00
1C00
3800
7000
E000
E000
7000
3800
1C00
0C00
0400
ENDCHAR
STARTCHAR guilsinglright.uni203A
ENCODING 8250
SWIDTH 466 0
DWIDTH 16 0
BBX 6 12 4 2
BITMAP
8000
C000
E000
7000
3800
1C00
1C00
3800
7000
E000
C000
8000
ENDCHAR
STARTCHAR Euro.uni20AC
ENCODING 8364
SWIDTH 466 0
DWIDTH 16 0
BBX 13 20 1 0
BITMAP
03F0
07F8
0E18
1C00
1C00
3800
3800
FFC0
FFC0
3800
3800
FFC0
FFC0
3800
3800
1C00
1C00
0E18
07F8
03F0
ENDCHAR
STARTCHAR trademark.uni2122
ENCODING 8482
SWIDTH 466 0
DWIDTH 16 0
BBX 13 8 1 12
BITMAP
FA08
2318
2318
22A8
22A8
2248
2248
2208
ENDCHAR
STARTCHAR arrowleft.uni2190
ENCODING 8592
SWIDTH 466 0
DWIDTH 16 0
BBX 15 14 0 0
BITMAP
0300
0700
0E00
1E00
3C00
7C00
FFFE
FFFE
7C00
3C00
1E00
0E00
0700
0300
ENDCHAR
STARTCHAR arrowup.uni2191
ENCODING 8593
SWIDTH 466 0
DWIDTH 16 0
BBX 14 26 0 -6
BITMAP
0300
0780
0FC0
1FE0
3FF0
7FF8
F33C
C30C
0300
0300
0300
0300
0300
0300
0300
0300
0300
0300
0300
0300
0300
0300
0300
0300
0300
0300
ENDCHAR
STARTCHAR arrowright.uni2192
ENCODING 8594
SWIDTH 466 0
DWIDTH 16 0
BBX 15 14 0 0
BITMAP
0180
01C0
00E0
00F0
0078
007C
FFFE
FFFE
007C
0078
00F0
00E0
01C0
0180
ENDCHAR
STARTCHAR arrowdown.uni2193
ENCODING 8595
SWIDTH 466 0
DWIDTH 16 0
BBX 14 26 0 -6
BITMAP
0300
0300
0300
0300
0300
0300
0300
0300
0300
0300
0300
0300
0300
0300
0300
0300
0300
0300
C30C
F33C
7FF8
3FF0
1FE0
0FC0
0780
0300
ENDCHAR
STARTCHAR carriagereturn.uni21B5
ENCODING 8629
SWIDTH 740 0
DWIDTH 16 0
BBX 14 17 0 1
BITMAP
000C
000C
000C
000C
000C
000C
000C
0C0C
1C0C
380C
780C
FFFC
FFFC
7800
3800
1C00
0C00
ENDCHAR
STARTCHAR partialdiff.uni2202
ENCODING 8706
SWIDTH 740 0
DWIDTH 16 0
BBX 11 17 2 0
BITMAP
0F00
1F80
18C0
0040
0060
0060
1E60
3160
60E0
E0E0
C0E0
C0C0
C0C0
C1C0
4180
6300
1E00
ENDCHAR
STARTCHAR Delta.uni2206
ENCODING 8710
SWIDTH 466 0
DWIDTH 16 0
BBX 14 20 0 0
BITMAP
0300
0300
0300
0780
0780
0780
0FC0
0CC0
0CC0
1CE0
1860
1860
3870
3030
3030
7038
6018
6018
FFFC
FFFC
ENDCHAR
STARTCHAR Pi.uni03A0
ENCODING 928
SWIDTH 466 0
DWIDTH 16 0
BBX 12 20 1 0
BITMAP
FFF0
FFF0
E070
E070
E070
E070
E070
E070
E070
E070
E070
E070
E070
E070
E070
E070
E070
E070
E070
E070
ENDCHAR
STARTCHAR summation.uni2211
ENCODING 8721
SWIDTH 466 0
DWIDTH 16 0
BBX 12 26 1 -6
BITMAP
FFF0
FFF0
6000
7000
3000
3800
1800
1C00
0C00
0E00
0600
0700
0300
0300
0700
0600
0E00
0C00
1C00
1800
3800
3000
7000
6000
FFF0
FFF0
ENDCHAR
STARTCHAR minus.uni2212
ENCODING 8722
SWIDTH 466 0
DWIDTH 16 0
BBX 11 3 2 7
BITMAP
FFE0
FFE0
FFE0
ENDCHAR
STARTCHAR slashdiv.uni2215
ENCODING 8725
SWIDTH 466 0
DWIDTH 16 0
BBX 13 22 1 -2
BITMAP
0038
0038
0070
0070
00E0
00E0
01C0
01C0
0380
0380
0700
0700
0E00
0E00
1C00
1C00
3800
3800
7000
7000
E000
E000
ENDCHAR
STARTCHAR bulletop.uni2219
ENCODING 8729
SWIDTH 466 0
DWIDTH 16 0
BBX 4 4 5 7
BITMAP
F000
F000
F000
F000
ENDCHAR
STARTCHAR radical.uni221A
ENCODING 8730
SWIDTH 466 0
DWIDTH 16 0
BBX 15 24 0 -1
BITMAP
001E
001E
0018
0030
0030
0030
0030
0060
0060
0060
0060
F8C0
F8C0
18C0
18C0
0D80
0D80
0D80
0D80
0700
0700
0700
0200
0200
ENDCHAR
STARTCHAR infinity.uni221E
ENCODING 8734
SWIDTH 466 0
DWIDTH 16 0
BBX 15 10 0 3
BITMAP
3838
7C7C
E6CE
C386
C386
C386
C386
E6CE
7C7C
3838
ENDCHAR
STARTCHAR mesangle.uni2221
ENCODING 8737
SWIDTH 466 0
DWIDTH 16 0
BBX 15 19 0 1
BITMAP
0030
0030
0070
0060
00E0
01C0
0180
0380
0300
0700
0780
0FC0
1CE0
1860
3830
3030
7030
7FFE
FFFE
ENDCHAR
STARTCHAR integral.uni222B
ENCODING 8747
SWIDTH 466 0
DWIDTH 16 0
BBX 13 25 1 -4
BITMAP
00F0
01B8
01B8
0380
0300
0300
0700
0700
0700
0700
0700
0700
0700
0700
0700
0700
0700
0700
0700
0600
0600
0E00
EC00
EC00
7800
ENDCHAR
STARTCHAR approxequal.uni2248
ENCODING 8776
SWIDTH 466 0
DWIDTH 16 0
BBX 13 9 1 4
BITMAP
3C00
FF18
C7F8
01E0
0000
3C00
FF18
C7F8
01E0
ENDCHAR
STARTCHAR notequal.uni2260
ENCODING 8800
SWIDTH 466 0
DWIDTH 16 0
BBX 13 15 1 1
BITMAP
0010
0038
0070
00E0
FFF8
FFF8
0380
0700
0E00
FFF8
FFF8
3800
7000
E000
4000
ENDCHAR
STARTCHAR lessequal.uni2264
ENCODING 8804
SWIDTH 466 0
DWIDTH 16 0
BBX 13 14 1 0
BITMAP
0018
0078
03E0
0F80
3C00
F000
3C00
0F80
03E0
0078
0018
0000
FFF8
FFF8
ENDCHAR
STARTCHAR greaterequal.uni2265
ENCODING 8805
SWIDTH 466 0
DWIDTH 16 0
BBX 13 14 1 0
BITMAP
C000
F000
3E00
0F80
01E0
0078
01E0
0F80
3E00
F000
C000
0000
FFF8
FFF8
ENDCHAR
STARTCHAR lf.uni240A
ENCODING 9226
SWIDTH 466 0
DWIDTH 16 0
BBX 14 22 0 -1
BITMAP
C000
C000
C000
C000
C000
C000
C000
C000
C000
F800
F800
01FC
01FC
0180
0180
0180
01F8
01F8
0180
0180
0180
0180
ENDCHAR
STARTCHAR escape.uni241B
ENCODING 9243
SWIDTH 466 0
DWIDTH 16 0
BBX 15 25 0 -4
BITMAP
F800
C000
C000
C000
F800
C000
C000
C780
ECC0
0C00
0C00
0600
0180
00C0
00C0
0CC0
079C
0026
0062
0060
0060
0060
0062
0026
001C
ENDCHAR
STARTCHAR bdlvr.uni251C
ENCODING 9500
SWIDTH 466 0
DWIDTH 16 0
BBX 9 25 3 -4
BITMAP
C000
C000
C000
C000
C000
C000
C000
C000
C000
C000
C000
C000
FF80
FF80
C000
C000
C000
C000
C000
C000
C000
C000
C000
C000
C000
ENDCHAR
STARTCHAR shade.uni2592
ENCODING 9618
SWIDTH 740 0
DWIDTH 16 0
BBX 15 29 0 -5
BITMAP
5554
0000
AAAA
0000
5554
0000
AAAA
0000
5554
0000
AAAA
0000
5554
0000
AAAA
0000
5554
0000
AAAA
0000
5554
0000
AAAA
0000
5554
0000
AAAA
0000
5554
ENDCHAR
STARTCHAR filledbox.uni25A0
ENCODING 9632
SWIDTH 466 0
DWIDTH 16 0
BBX 10 12 2 2
BITMAP
FFC0
FFC0
FFC0
FFC0
FFC0
FFC0
FFC0
FFC0
FFC0
FFC0
FFC0
FFC0
ENDCHAR
STARTCHAR triagup.uni25B2
ENCODING 9650
SWIDTH 466 0
DWIDTH 16 0
BBX 15 15 0 0
BITMAP
0100
0100
0380
0380
07C0
07C0
0FE0
0FE0
1FF0
1FF0
3FF8
3FF8
7FFC
7FFC
FFFE
ENDCHAR
STARTCHAR triagright.uni25B6
ENCODING 9654
SWIDTH 466 0
DWIDTH 16 0
BBX 15 15 0 0
BITMAP
8000
E000
F800
FE00
FF80
FFE0
FFF8
FFFE
FFF8
FFE0
FF80
FE00
F800
E000
8000
ENDCHAR
STARTCHAR triagdn.uni25BC
ENCODING 9660
SWIDTH 466 0
DWIDTH 16 0
BBX 15 15 0 0
BITMAP
FFFE
7FFC
7FFC
3FF8
3FF8
1FF0
1FF0
0FE0
0FE0
07C0
07C0
0380
0380
0100
0100
ENDCHAR
STARTCHAR lozenge.uni25CA
ENCODING 9674
SWIDTH 466 0
DWIDTH 16 0
BBX 13 27 1 -5
BITMAP
0200
0200
0700
0500
0D80
0880
18C0
1040
3060
2020
6030
4010
C018
8008
C018
4010
6030
2020
3060
1040
18C0
0880
0D80
0500
0700
0200
0200
ENDCHAR
STARTCHAR fi.uniFB01
ENCODING 64257
SWIDTH 466 0
DWIDTH 16 0
BBX 14 21 0 0
BITMAP
07F8
0FFC
1E1C
1C00
1C00
1C00
FFFC
FFFC
1C1C
1C1C
1C1C
1C1C
1C1C
1C1C
1C1C
1C1C
1C1C
1C1C
1C1C
1C1C
1C1C
ENDCHAR
STARTCHAR fl.uniFB02
ENCODING 64258
SWIDTH 466 0
DWIDTH 16 0
BBX 14 21 0 0
BITMAP
07FC
0FFC
1E1C
1C1C
1C1C
1C1C
FFDC
FFDC
1C1C
1C1C
1C1C
1C1C
1C1C
1C1C
1C1C
1C1C
1C1C
1C1C
1C1C
1C1C
1C1C
ENDCHAR
STARTCHAR uparrtipleft.uni21B0
ENCODING 8624
SWIDTH 740 0
DWIDTH 16 0
BBX 11 21 1 0
BITMAP
0C00
1C00
3800
7800
FF80
FFC0
78E0
3860
1C60
0C60
0060
0060
0060
0060
0060
0060
0060
0060
0060
0060
0060
ENDCHAR
STARTCHAR uparrtipright.uni21B1
ENCODING 8625
SWIDTH 740 0
DWIDTH 16 0
BBX 11 21 3 0
BITMAP
0600
0700
0380
03C0
3FE0
7FE0
E3C0
C380
C700
C600
C000
C000
C000
C000
C000
C000
C000
C000
C000
C000
C000
ENDCHAR
STARTCHAR xsuperior.uni02E3
ENCODING 739
SWIDTH 740 0
DWIDTH 16 0
BBX 9 11 2 9
BITMAP
E380
6300
7700
3600
1C00
1C00
3E00
3600
7700
6300
E380
ENDCHAR
STARTCHAR sigma.uni03C3
ENCODING 963
SWIDTH 740 0
DWIDTH 16 0
BBX 13 15 1 0
BITMAP
0FF8
3FF8
79C0
70E0
F0F0
E070
E070
E070
E070
E070
F0F0
70E0
79E0
3FC0
0F00
ENDCHAR
STARTCHAR theta.uni03B8
ENCODING 952
SWIDTH 740 0
DWIDTH 16 0
BBX 13 20 1 0
BITMAP
0F80
3FE0
38E0
7070
7070
E038
E038
E038
E038
FFF8
FFF8
E038
E038
E038
E038
7070
7070
38E0
3FE0
0F80
ENDCHAR
STARTCHAR eqminus.uni23BB
ENCODING 9147
SWIDTH 740 0
DWIDTH 16 0
BBX 11 3 2 14
BITMAP
FFE0
FFE0
FFE0
ENDCHAR
STARTCHAR block.uni2588
ENCODING 9608
SWIDTH 740 0
DWIDTH 16 0
BBX 15 29 0 -5
BITMAP
FFFE
FFFE
FFFE
FFFE
FFFE
FFFE
FFFE
FFFE
FFFE
FFFE
FFFE
FFFE
FFFE
FFFE
FFFE
FFFE
FFFE
FFFE
FFFE
FFFE
FFFE
FFFE
FFFE
FFFE
FFFE
FFFE
FFFE
FFFE
FFFE
ENDCHAR
STARTCHAR boldparleft.uni27EA
ENCODING 10218
SWIDTH 740 0
DWIDTH 16 0
BBX 8 24 3 -3
BITMAP
0F00
1E00
1E00
3C00
3C00
7C00
7C00
7800
F800
F800
F800
F800
F800
F800
F800
F800
7800
7C00
7C00
3C00
3C00
1E00
1E00
0F00
ENDCHAR
STARTCHAR boldparright.uni27EB
ENCODING 10219
SWIDTH 740 0
DWIDTH 16 0
BBX 8 24 4 -3
BITMAP
F000
7800
7800
3C00
3C00
3E00
3E00
1E00
1F00
1F00
1F00
1F00
1F00
1F00
1F00
1F00
1E00
3E00
3E00
3C00
3C00
7800
7800
F000
ENDCHAR
STARTCHAR ucircumflex.uni00FB
ENCODING 251
SWIDTH 582 0
DWIDTH 16 0
BBX 11 21 2 0
BITMAP
0E00
1F00
3180
60C0
0000
0000
E0E0
E0E0
E0E0
E0E0
E0E0
E0E0
E0E0
E0E0
E0E0
E0E0
E0E0
E1E0
F1E0
7EE0
3CE0
ENDCHAR
STARTCHAR udieresis.uni00FC
ENCODING 252
SWIDTH 582 0
DWIDTH 16 0
BBX 11 21 2 0
BITMAP
39C0
39C0
39C0
0000
0000
0000
E0E0
E0E0
E0E0
E0E0
E0E0
E0E0
E0E0
E0E0
E0E0
E0E0
E0E0
E1E0
F1E0
7EE0
3CE0
ENDCHAR
STARTCHAR yacute.uni00FD
ENCODING 253
SWIDTH 582 0
DWIDTH 16 0
BBX 13 28 1 -6
BITMAP
00E0
01C0
0180
0300
0600
0000
0000
E038
7070
7070
7070
38E0
38E0
38E0
1DC0
1DC0
1FC0
0F80
0F80
0F80
0700
0700
0F00
0E00
0E00
1C00
7C00
7800
ENDCHAR
STARTCHAR ydieresis.uni00FF
ENCODING 255
SWIDTH 582 0
DWIDTH 16 0
BBX 13 27 1 -6
BITMAP
1CE0
1CE0
1CE0
0000
0000
0000
E038
7070
7070
7070
38E0
38E0
38E0
1DC0
1DC0
1FC0
0F80
0F80
0F80
0700
0700
0F00
0E00
0E00
1C00
7C00
7800
ENDCHAR
STARTCHAR triagleft.uni25C0
ENCODING 9664
SWIDTH 466 0
DWIDTH 16 0
BBX 15 15 0 0
BITMAP
0002
000E
003E
00FE
03FE
0FFE
3FFE
FFFE
3FFE
0FFE
03FE
00FE
003E
000E
0002
ENDCHAR
STARTCHAR germandblS.uni1E9E
ENCODING 7838
SWIDTH 466 0
DWIDTH 16 0
BBX 12 21 1 0
BITMAP
1FF0
7FF0
7060
E0E0
E1C0
E1C0
E380
E380
E700
E700
EFC0
EFE0
E1E0
E0F0
E070
E070
E070
E070
E8F0
EFE0
E7C0
ENDCHAR
STARTCHAR Gamma.uni0393
ENCODING 915
SWIDTH 466 0
DWIDTH 16 0
BBX 12 20 1 0
BITMAP
FFF0
FFF0
E000
E000
E000
E000
E000
E000
E000
E000
E000
E000
E000
E000
E000
E000
E000
E000
E000
E000
ENDCHAR
ENDFONT
